<svg id="visual" viewBox="0 0 4096 2048" width="4096" height="2048" xmlns="http://www.w3.org/2000/svg" xmlns:xlink="http://www.w3.org/1999/xlink" version="1.1"><rect x="0" y="0" width="4096" height="2048" fill="#222233"></rect><path d="M0 1058L585 1129L1170 1320L1755 1185L2341 918L2926 1154L3511 1166L4096 993L4096 2049L3511 2049L2926 2049L2341 2049L1755 2049L1170 2049L585 2049L0 2049Z" fill="#3d3d6d"></path><path d="M0 1247L585 1518L1170 1191L1755 1289L2341 1238L2926 1406L3511 1457L4096 1122L4096 2049L3511 2049L2926 2049L2341 2049L1755 2049L1170 2049L585 2049L0 2049Z" fill="#2d2e53"></path><path d="M0 1390L585 1394L1170 1571L1755 1537L2341 1421L2926 1383L3511 1542L4096 1644L4096 2049L3511 2049L2926 2049L2341 2049L1755 2049L1170 2049L585 2049L0 2049Z" fill="#1e203a"></path><path d="M0 1759L585 1673L1170 1662L1755 1709L2341 1765L2926 1861L3511 1630L4096 1735L4096 2049L3511 2049L2926 2049L2341 2049L1755 2049L1170 2049L585 2049L0 2049Z" fill="#111122"></path></svg>