<svg id="visual" viewBox="0 0 4096 2048" width="4096" height="2048" xmlns="http://www.w3.org/2000/svg"
    xmlns:xlink="http://www.w3.org/1999/xlink" version="1.1" filter="url(#blur)">
    <rect x="0" y="0" width="4096" height="2048" fill="#c0ffee"></rect>
    <defs>
        <filter id="blur" x="0" y="0">
            <feGaussianBlur in="SourceGraphic" stdDeviation="2" />
        </filter>
    </defs>
    <path
        d="M0 882L75.8 917.8C151.7 953.7 303.3 1025.3 455 1016.7C606.7 1008 758.3 919 910 889.2C1061.7 859.3 1213.3 888.7 1365 887.8C1516.7 887 1668.3 856 1820.2 862.2C1972 868.3 2124 911.7 2275.8 910C2427.7 908.3 2579.3 861.7 2731 881.5C2882.7 901.3 3034.3 987.7 3186 1016C3337.7 1044.3 3489.3 1014.7 3641 981C3792.7 947.3 3944.3 909.7 4020.2 890.8L4096 872L4096 2049L4020.2 2049C3944.3 2049 3792.7 2049 3641 2049C3489.3 2049 3337.7 2049 3186 2049C3034.3 2049 2882.7 2049 2731 2049C2579.3 2049 2427.7 2049 2275.8 2049C2124 2049 1972 2049 1820.2 2049C1668.3 2049 1516.7 2049 1365 2049C1213.3 2049 1061.7 2049 910 2049C758.3 2049 606.7 2049 455 2049C303.3 2049 151.7 2049 75.8 2049L0 2049Z"
        fill="#c0ffee"></path>
    <path
        d="M0 1335L75.8 1312C151.7 1289 303.3 1243 455 1198C606.7 1153 758.3 1109 910 1087.5C1061.7 1066 1213.3 1067 1365 1112.8C1516.7 1158.7 1668.3 1249.3 1820.2 1252C1972 1254.7 2124 1169.3 2275.8 1153C2427.7 1136.7 2579.3 1189.3 2731 1236.8C2882.7 1284.3 3034.3 1326.7 3186 1321.2C3337.7 1315.7 3489.3 1262.3 3641 1233.3C3792.7 1204.3 3944.3 1199.7 4020.2 1197.3L4096 1195L4096 2049L4020.2 2049C3944.3 2049 3792.7 2049 3641 2049C3489.3 2049 3337.7 2049 3186 2049C3034.3 2049 2882.7 2049 2731 2049C2579.3 2049 2427.7 2049 2275.8 2049C2124 2049 1972 2049 1820.2 2049C1668.3 2049 1516.7 2049 1365 2049C1213.3 2049 1061.7 2049 910 2049C758.3 2049 606.7 2049 455 2049C303.3 2049 151.7 2049 75.8 2049L0 2049Z"
        fill="#7dc5cb"></path>
    <path
        d="M0 1331L75.8 1352.3C151.7 1373.7 303.3 1416.3 455 1436.7C606.7 1457 758.3 1455 910 1434.2C1061.7 1413.3 1213.3 1373.7 1365 1363C1516.7 1352.3 1668.3 1370.7 1820.2 1366.3C1972 1362 2124 1335 2275.8 1346.3C2427.7 1357.7 2579.3 1407.3 2731 1435C2882.7 1462.7 3034.3 1468.3 3186 1434.3C3337.7 1400.3 3489.3 1326.7 3641 1318.7C3792.7 1310.7 3944.3 1368.3 4020.2 1397.2L4096 1426L4096 2049L4020.2 2049C3944.3 2049 3792.7 2049 3641 2049C3489.3 2049 3337.7 2049 3186 2049C3034.3 2049 2882.7 2049 2731 2049C2579.3 2049 2427.7 2049 2275.8 2049C2124 2049 1972 2049 1820.2 2049C1668.3 2049 1516.7 2049 1365 2049C1213.3 2049 1061.7 2049 910 2049C758.3 2049 606.7 2049 455 2049C303.3 2049 151.7 2049 75.8 2049L0 2049Z"
        fill="#4d8ca5"></path>
    <path
        d="M0 1546L75.8 1547.2C151.7 1548.3 303.3 1550.7 455 1540.5C606.7 1530.3 758.3 1507.7 910 1539.2C1061.7 1570.7 1213.3 1656.3 1365 1680.8C1516.7 1705.3 1668.3 1668.7 1820.2 1644.2C1972 1619.7 2124 1607.3 2275.8 1591C2427.7 1574.7 2579.3 1554.3 2731 1574.2C2882.7 1594 3034.3 1654 3186 1671.8C3337.7 1689.7 3489.3 1665.3 3641 1654C3792.7 1642.7 3944.3 1644.3 4020.2 1645.2L4096 1646L4096 2049L4020.2 2049C3944.3 2049 3792.7 2049 3641 2049C3489.3 2049 3337.7 2049 3186 2049C3034.3 2049 2882.7 2049 2731 2049C2579.3 2049 2427.7 2049 2275.8 2049C2124 2049 1972 2049 1820.2 2049C1668.3 2049 1516.7 2049 1365 2049C1213.3 2049 1061.7 2049 910 2049C758.3 2049 606.7 2049 455 2049C303.3 2049 151.7 2049 75.8 2049L0 2049Z"
        fill="#325578"></path>
    <path
        d="M0 1801L75.8 1809.5C151.7 1818 303.3 1835 455 1837.3C606.7 1839.7 758.3 1827.3 910 1800.2C1061.7 1773 1213.3 1731 1365 1727.7C1516.7 1724.3 1668.3 1759.7 1820.2 1762C1972 1764.3 2124 1733.7 2275.8 1737.3C2427.7 1741 2579.3 1779 2731 1784.3C2882.7 1789.7 3034.3 1762.3 3186 1773.8C3337.7 1785.3 3489.3 1835.7 3641 1862.3C3792.7 1889 3944.3 1892 4020.2 1893.5L4096 1895L4096 2049L4020.2 2049C3944.3 2049 3792.7 2049 3641 2049C3489.3 2049 3337.7 2049 3186 2049C3034.3 2049 2882.7 2049 2731 2049C2579.3 2049 2427.7 2049 2275.8 2049C2124 2049 1972 2049 1820.2 2049C1668.3 2049 1516.7 2049 1365 2049C1213.3 2049 1061.7 2049 910 2049C758.3 2049 606.7 2049 455 2049C303.3 2049 151.7 2049 75.8 2049L0 2049Z"
        fill="#222244"></path>
</svg>