
<svg xmlns="http://www.w3.org/2000/svg" version="1.1" xmlns:xlink="http://www.w3.org/1999/xlink" preserveAspectRatio="none" x="0px" y="0px" width="4096px" height="4096px" viewBox="0 0 4096 4096">
<defs>
<g id="Layer1_0_FILL">
<path fill="#001C30" stroke="none" d="
M 4096 2048
L 4096 0 0 0 0 2048 4096 2048 Z"/>
</g>

<g id="Layer1_1_FILL">
<path fill="#00309D" stroke="none" d="
M 4096 1446
L 3998.5 1480.7
Q 3876.05 1524.2 3791.3 1552.45 3637.7 1603.65 3511 1638.85 3352.8 1682.8 3218.5 1706.25 3064.25 1733.2 2926 1736.2 2786.6 1739.15 2633.5 1718.45 2496.7 1699.95 2340.8 1661.35 2276.35 1645.4 2194.4 1622.35 2152.3 1610.55 2048 1580.25 1954.65 1553.15 1901.55 1538.55 1820.75 1516.25 1755.15 1500.7 1478.4 1434.95 1170 1415.2 1018.15 1405.45 877.5 1408 726.7 1410.7 585 1427.5 458.2 1442.6 304.7 1472.9 219 1489.85 97.5 1517.7
L 0 1540 0 4098 4096 4098 4096 1446 Z"/>
</g>

<g id="Layer0_0_FILL">
<path fill="#00206A" stroke="none" d="
M 4096 1446
L 3998.5 1480.7
Q 3876.05 1524.2 3791.3 1552.45 3637.7 1603.65 3511 1638.85 3352.8 1682.8 3218.5 1706.25 3064.25 1733.2 2926 1736.2 2786.6 1739.15 2633.5 1718.45 2496.7 1699.95 2340.8 1661.35 2276.35 1645.4 2194.4 1622.35 2152.3 1610.55 2048 1580.25 1954.65 1553.15 1901.55 1538.55 1820.75 1516.25 1755.15 1500.7 1478.4 1434.95 1170 1415.2 1018.15 1405.45 877.5 1408 726.7 1410.7 585 1427.5 458.2 1442.6 304.7 1472.9 219 1489.85 97.5 1517.7
L 0 1540 0 2049 4096 2049 4096 1446 Z"/>
</g>
</defs>

<g transform="matrix( 1, 0, 0, 1, 0,0) ">
<use xlink:href="#Layer1_0_FILL"/>
</g>

<g transform="matrix( 1, 0, 0, 1.000030517578125, 0,-0.15) ">
<use xlink:href="#Layer1_1_FILL"/>
</g>

<g transform="matrix( -1, 0, 0, 1, 4096,2049) ">
<use xlink:href="#Layer0_0_FILL"/>
</g>
</svg>
