<svg id="visual" viewBox="0 0 4096 2048" width="4096" height="2048" xmlns="http://www.w3.org/2000/svg" xmlns:xlink="http://www.w3.org/1999/xlink" version="1.1"><rect x="0" y="0" width="4096" height="2048" fill="#002233"></rect><path d="M0 1540L97.5 1517.7C195 1495.3 390 1450.7 585 1427.5C780 1404.3 975 1402.7 1170 1415.2C1365 1427.7 1560 1454.3 1755.2 1500.7C1950.3 1547 2145.7 1613 2340.8 1661.3C2536 1709.7 2731 1740.3 2926 1736.2C3121 1732 3316 1693 3511 1638.8C3706 1584.7 3901 1515.3 3998.5 1480.7L4096 1446L4096 2049L3998.5 2049C3901 2049 3706 2049 3511 2049C3316 2049 3121 2049 2926 2049C2731 2049 2536 2049 2340.8 2049C2145.7 2049 1950.3 2049 1755.2 2049C1560 2049 1365 2049 1170 2049C975 2049 780 2049 585 2049C390 2049 195 2049 97.5 2049L0 2049Z" fill="#003399" stroke-linecap="round" stroke-linejoin="miter"></path></svg>