<svg xmlns="http://www.w3.org/2000/svg" xmlns:xlink="http://www.w3.org/1999/xlink" width="1000" height="1000" x="0" y="0" preserveAspectRatio="none" version="1.1" viewBox="0 0 1000 1000"><defs><g id="Layer0_0_FILL"><path fill="#FFF" stroke="none" d="M 968.65 443.25 Q 947.1 421.7 916.65 421.7 887 421.7 865.85 442.05 865.25 442.65 864.65 443.25 864 443.95 863.35 444.6 L 499.95 807.95 137.1 445.05 Q 136.2 444.1 135.35 443.25 134.4 442.3 133.45 441.45 112.5 421.7 83.4 421.7 52.9 421.7 31.35 443.25 9.85 464.75 9.85 495.25 9.85 524.35 29.55 545.4 L 29.5 545.4 445.4 961.3 445.5 961.25 Q 446.75 962.6 448.05 963.9 469.6 985.4 500.05 985.4 530.5 985.4 552.05 963.9 553.25 962.7 554.45 961.45 L 966.9 548.95 Q 967.75 548.15 968.65 547.25 990.2 525.7 990.2 495.25 990.2 464.75 968.65 443.25 M 968.65 30.3 Q 947.1 8.75 916.65 8.75 887 8.75 865.85 29.1 865.25 29.7 864.65 30.3 864 31 863.35 31.65 L 499.95 395 137.1 32.1 Q 136.2 31.15 135.35 30.3 134.4 29.35 133.45 28.5 112.5 8.75 83.4 8.75 52.9 8.75 31.35 30.3 9.85 51.8 9.85 82.3 9.85 111.4 29.55 132.45 L 29.5 132.45 445.4 548.35 445.5 548.3 Q 446.75 549.65 448.05 550.95 469.6 572.45 500.05 572.45 530.5 572.45 552.05 550.95 553.25 549.75 554.45 548.5 L 966.9 136 Q 967.75 135.2 968.65 134.3 990.2 112.75 990.2 82.3 990.2 51.8 968.65 30.3 Z"/></g></defs><g transform="matrix( 1, 0, 0, 1, 0,0)"><use xlink:href="#Layer0_0_FILL"/></g></svg>