<svg id="visual" viewBox="0 0 1920 1080" width="1920" height="1080" xmlns="http://www.w3.org/2000/svg" xmlns:xlink="http://www.w3.org/1999/xlink" version="1.1"><rect x="0" y="0" width="1920" height="1080" fill="#001122"></rect><path d="M0 808L45.7 804.8C91.3 801.7 182.7 795.3 274.2 797C365.7 798.7 457.3 808.3 548.8 795.7C640.3 783 731.7 748 823 745C914.3 742 1005.7 771 1097 758.7C1188.3 746.3 1279.7 692.7 1371.2 677C1462.7 661.3 1554.3 683.7 1645.8 698C1737.3 712.3 1828.7 718.7 1874.3 721.8L1920 725L1920 1081L1874.3 1081C1828.7 1081 1737.3 1081 1645.8 1081C1554.3 1081 1462.7 1081 1371.2 1081C1279.7 1081 1188.3 1081 1097 1081C1005.7 1081 914.3 1081 823 1081C731.7 1081 640.3 1081 548.8 1081C457.3 1081 365.7 1081 274.2 1081C182.7 1081 91.3 1081 45.7 1081L0 1081Z" fill="#0077bb"></path><path d="M0 593L45.7 600.2C91.3 607.3 182.7 621.7 274.2 619.5C365.7 617.3 457.3 598.7 548.8 603.8C640.3 609 731.7 638 823 671C914.3 704 1005.7 741 1097 734.3C1188.3 727.7 1279.7 677.3 1371.2 686.3C1462.7 695.3 1554.3 763.7 1645.8 774C1737.3 784.3 1828.7 736.7 1874.3 712.8L1920 689L1920 1081L1874.3 1081C1828.7 1081 1737.3 1081 1645.8 1081C1554.3 1081 1462.7 1081 1371.2 1081C1279.7 1081 1188.3 1081 1097 1081C1005.7 1081 914.3 1081 823 1081C731.7 1081 640.3 1081 548.8 1081C457.3 1081 365.7 1081 274.2 1081C182.7 1081 91.3 1081 45.7 1081L0 1081Z" fill="#009ad3"></path><path d="M0 682L45.7 710.5C91.3 739 182.7 796 274.2 800C365.7 804 457.3 755 548.8 732C640.3 709 731.7 712 823 725.2C914.3 738.3 1005.7 761.7 1097 788.8C1188.3 816 1279.7 847 1371.2 857.8C1462.7 868.7 1554.3 859.3 1645.8 841.8C1737.3 824.3 1828.7 798.7 1874.3 785.8L1920 773L1920 1081L1874.3 1081C1828.7 1081 1737.3 1081 1645.8 1081C1554.3 1081 1462.7 1081 1371.2 1081C1279.7 1081 1188.3 1081 1097 1081C1005.7 1081 914.3 1081 823 1081C731.7 1081 640.3 1081 548.8 1081C457.3 1081 365.7 1081 274.2 1081C182.7 1081 91.3 1081 45.7 1081L0 1081Z" fill="#00bde6"></path><path d="M0 818L45.7 819.8C91.3 821.7 182.7 825.3 274.2 831C365.7 836.7 457.3 844.3 548.8 841.8C640.3 839.3 731.7 826.7 823 840.7C914.3 854.7 1005.7 895.3 1097 898C1188.3 900.7 1279.7 865.3 1371.2 866.7C1462.7 868 1554.3 906 1645.8 924.5C1737.3 943 1828.7 942 1874.3 941.5L1920 941L1920 1081L1874.3 1081C1828.7 1081 1737.3 1081 1645.8 1081C1554.3 1081 1462.7 1081 1371.2 1081C1279.7 1081 1188.3 1081 1097 1081C1005.7 1081 914.3 1081 823 1081C731.7 1081 640.3 1081 548.8 1081C457.3 1081 365.7 1081 274.2 1081C182.7 1081 91.3 1081 45.7 1081L0 1081Z" fill="#00dfed"></path><path d="M0 952L45.7 951C91.3 950 182.7 948 274.2 939.7C365.7 931.3 457.3 916.7 548.8 914.3C640.3 912 731.7 922 823 934.5C914.3 947 1005.7 962 1097 957.5C1188.3 953 1279.7 929 1371.2 920.5C1462.7 912 1554.3 919 1645.8 915.7C1737.3 912.3 1828.7 898.7 1874.3 891.8L1920 885L1920 1081L1874.3 1081C1828.7 1081 1737.3 1081 1645.8 1081C1554.3 1081 1462.7 1081 1371.2 1081C1279.7 1081 1188.3 1081 1097 1081C1005.7 1081 914.3 1081 823 1081C731.7 1081 640.3 1081 548.8 1081C457.3 1081 365.7 1081 274.2 1081C182.7 1081 91.3 1081 45.7 1081L0 1081Z" fill="#00ffe0"></path></svg>