
<svg xmlns="http://www.w3.org/2000/svg" version="1.1" xmlns:xlink="http://www.w3.org/1999/xlink" preserveAspectRatio="none" x="0px" y="0px" width="50px" height="50px" viewBox="0 0 1000 1000">
<defs>
<g id="Layer0_0_FILL">
<path fill="#FFFFFF" stroke="none" d="
M 968.65 237.3
Q 947.1 215.75 916.65 215.75 887 215.75 865.85 236.1 865.25 236.7 864.65 237.3 864 238 863.35 238.65
L 499.95 602 137.1 239.1
Q 136.2 238.15 135.35 237.3 134.4 236.35 133.45 235.5 112.5 215.75 83.4 215.75 52.9 215.75 31.35 237.3 9.85 258.8 9.85 289.3 9.85 318.4 29.55 339.45
L 29.5 339.45 445.4 755.35 445.5 755.3
Q 446.75 756.65 448.05 757.95 469.6 779.45 500.05 779.45 530.5 779.45 552.05 757.95 553.25 756.75 554.45 755.5
L 966.9 343
Q 967.75 342.2 968.65 341.3 990.2 319.75 990.2 289.3 990.2 258.8 968.65 237.3 Z"/>
</g>
</defs>

<g transform="matrix( 1, 0, 0, 1, 0,0) ">
<use xlink:href="#Layer0_0_FILL"/>
</g>
</svg>
