<svg xmlns="http://www.w3.org/2000/svg" version="1.1" xmlns:xlink="http://www.w3.org/1999/xlink" preserveAspectRatio="none" x="0px" y="0px" width="1600px" height="400px" viewBox="0 0 1600 400"><defs><linearGradient id="Gradient_1" gradientUnits="userSpaceOnUse" x1="726.2" y1="312.1875" x2="726.2" y2="113.51249999999999" spreadMethod="pad"><stop offset="0%" stop-color="#111133"/><stop offset="100%" stop-color="#333355"/></linearGradient><g id="svg_0_Layer0_0_FILL"><path fill="url(#Gradient_1)" stroke="none" d="M 1526.2 311.85L 1526.15 234.85Q 1423.45 234.85 1324.65 215.9 1286.15 208.5 1238.65 196.5 1225.4 193.15 1154.5 174.25 1102.15 160.3 1066.05 152 1015.2 140.35 967.4 132.65 849.85 113.75 715.2 113.85 580.7 113.85 463.8 132.75 385.1 145.5 279.1 174.35 200.2 195.8 197.4 196.55 151.4 208.65 115.15 215.95 21.4 234.85 -73.8 234.85L -73.8 311.85 1526.2 311.85 Z"/></g><g id="Layer0_1_FILL"><path fill="#111133" stroke="none" d="M 542.8 568.05L 542.8 256.25 -152.7 256.25 -152.7 568.05 542.8 568.05 Z"/></g></defs><g transform="matrix( 1, 0, 0, 1, 0,0) "><g transform="matrix( 1, 0, 0, 1, 73.8,-113.85) "><use xlink:href="#svg_0_Layer0_0_FILL"/></g></g><g transform="matrix( 2.300506591796875, 0, 0, 0.647857666015625, 351.25,32) "><use xlink:href="#Layer0_1_FILL"/></g></svg>